<?xml version="1.0" encoding="UTF-8"?>
<svg width="382px" height="84px" viewBox="0 0 382 84" version="1.1" xmlns="http://www.w3.org/2000/svg" xmlns:xlink="http://www.w3.org/1999/xlink">
    <!-- Generator: Sketch 53.2 (72643) - https://sketchapp.com -->
    <title>NSCR Logo</title>
    <desc>Created with Sketch.</desc>
    <defs>
        <polygon id="path-1" points="0 0.124897959 49.08 0.124897959 49.08 47.1453061 0 47.1453061"></polygon>
        <polygon id="path-3" points="0.808363636 0 75.9242575 0 75.9242575 60.1910291 0.808363636 60.1910291"></polygon>
        <polygon id="path-5" points="0.741493194 0.7364 213.656928 0.7364 213.656928 14 0.741493194 14"></polygon>
    </defs>
    <g id="Symbols" stroke="none" stroke-width="1" fill="none" fill-rule="evenodd">
        <g id="Navigatie" transform="translate(-50.000000, -26.000000)">
            <g id="NSCR-Logo" transform="translate(50.000000, 26.000000)">
                <path d="M57.7493188,51.9318645 C60.7011807,53.7748565 65.5524523,55.1690428 68.6825613,55.1690428 C74.6078565,55.1690428 77.9434605,53.0083318 77.9434605,49.0246251 C77.9434605,40.4062211 57,40.7417145 57,27.5719311 C57,19.494538 63.6212534,14 73.8222071,14 C77.9332425,14 81.8739782,14.7654138 84.7554496,15.7985558 L84.0084015,23.1671913 C82.0465486,22.0007406 78.3862398,20.833179 74.3694369,20.833179 C68.9334696,20.833179 66.0565395,23.029439 66.0565395,26.4043696 C66.0565395,34.3062396 87,35.358267 87,48.039252 C87,57.8352157 78.8687557,62 70.3651226,62 C65.2742961,62 60.6285195,61.1323829 57.2804269,59.4815775 L57.7493188,51.9318645 Z" id="Fill-1" fill="#B1005D"></path>
                <g id="Group-5" transform="translate(0.000000, 13.000000)">
                    <mask id="mask-2" fill="white">
                        <use xlink:href="#path-1"></use>
                    </mask>
                    <g id="Clip-4"></g>
                    <path d="M33.3788636,0.124897959 C26.0527273,0.124897959 20.7879545,3.33862709 18.3311364,8.47703154 L18.1152273,8.47703154 L18.1152273,1.24029685 L-0.000681818182,1.24029685 L-0.000681818182,8.10189239 L9.90613636,8.10189239 L9.90613636,47.1453061 L18.6004545,47.1453061 L18.6004545,21.8785158 C18.6004545,16.3827829 19.8527273,13.2536549 22.0265909,11.0317625 C24.2436364,8.76423006 27.4197727,7.63324675 31.1925,7.63324675 C37.8140909,7.63324675 40.3868182,11.7085714 40.3868182,17.5838961 L40.3868182,47.1453061 L49.08,47.1453061 L49.08,17.4425232 C49.08,5.98909091 43.8254545,0.124897959 33.3788636,0.124897959" id="Fill-3" fill="#B1005D" mask="url(#mask-2)"></path>
                </g>
                <g id="Group-8" transform="translate(92.000000, 0.000000)">
                    <mask id="mask-4" fill="white">
                        <use xlink:href="#path-3"></use>
                    </mask>
                    <g id="Clip-7"></g>
                    <path d="M75.8907849,13.3496836 C75.4969238,13.2742655 75.0684743,13.2487564 74.6913495,13.2498655 C67.6219334,13.2764836 61.5622744,17.3745745 59.2080339,25.0006836 L59.0083139,25.0017927 L59.0083139,14.4232836 L58.7081762,14.4232836 L58.7081762,14.4077564 L44.2223444,14.4121927 C41.912734,3.32904727 33.2087386,-0.000443636364 25.3114331,-0.000443636364 C12.2961649,-0.000443636364 0.808363636,9.79061091 0.808363636,28.1804473 C0.808363636,40.8063382 8.06857369,47.8401927 19.4659989,47.8401927 C29.1105748,47.8401927 35.7426155,42.8381927 38.7227939,35.9640473 L31.2193495,32.6600655 C30.0187984,37.2361745 26.1661005,40.5213018 20.0584641,40.5213018 C13.8749565,40.5213018 9.76563523,36.2879018 9.76563523,28.05512 C9.76563523,15.7309018 14.9951733,7.11881091 25.0960926,7.11881091 C31.6768086,7.11881091 36.9465138,10.4915564 36.9465138,21.24752 L50.9503399,21.24752 L50.9447612,60.1910291 L59.6309046,60.1610836 L59.6219785,39.7992836 C59.6219785,34.0042836 60.4018905,30.6370836 62.017502,27.9309018 C64.4275302,23.8971382 68.2913857,22.0416291 73.8277561,22.0416291 C74.6634557,22.0416291 75.4177053,22.1070655 75.9242575,22.1858109 L75.8907849,13.3496836 Z" id="Fill-6" fill="#B1005D" mask="url(#mask-4)"></path>
                </g>
                <path d="M169,60.8429437 L170.317043,60.8429437 L170.317043,53.3087278 L170.342934,53.3087278 L174.503439,60.8429437 L176.189704,60.8429437 L176.189704,51.683195 L174.871535,51.683195 L174.871535,59.0581108 L174.846771,59.0581108 L170.790953,51.683195 L169,51.683195 L169,60.8429437 Z M183.682216,59.3329594 C183.379408,59.5831277 182.430462,60.0026924 181.614346,60.0026924 C180.443641,60.0026924 179.401263,59.0962531 179.401263,57.7713709 L184.194399,57.7713709 C184.194399,55.6185775 183.471714,53.9930446 181.232741,53.9930446 C179.335974,53.9930446 178.085346,55.3975768 178.085346,57.3787301 C178.085346,59.5550819 179.178379,61 181.561439,61 C182.66798,61 183.208305,60.7374916 183.682216,60.5658515 L183.682216,59.3329594 Z M179.401263,56.8537133 C179.494694,55.986538 179.995621,54.9903523 181.20685,54.9903523 C182.273993,54.9903523 182.878482,55.8283599 182.878482,56.8537133 L179.401263,56.8537133 Z M190.740216,60.8429437 L191.924429,60.8429437 L191.924429,51 L190.688434,51 L190.688434,55.0688804 L190.660292,55.0688804 C190.278688,54.4507516 189.606658,53.9930446 188.435953,53.9930446 C186.486279,53.9930446 185.538458,55.5781916 185.538458,57.3787301 C185.538458,59.2005834 186.395099,61 188.422445,61 C189.620166,61 190.384501,60.3953332 190.713199,59.8983621 L190.740216,59.8983621 L190.740216,60.8429437 Z M186.854376,57.4695984 C186.828485,56.2501683 187.354177,54.9903523 188.699362,54.9903523 C190.04117,54.9903523 190.688434,56.2625084 190.688434,57.5088625 C190.688434,58.6228405 190.107585,60.0026924 188.711744,60.0026924 C187.382319,60.0026924 186.828485,58.5185102 186.854376,57.4695984 L186.854376,57.4695984 Z M199.311126,59.3329594 C199.009445,59.5831277 198.059373,60.0026924 197.244382,60.0026924 C196.072551,60.0026924 195.031299,59.0962531 195.031299,57.7713709 L199.825561,57.7713709 C199.825561,55.6185775 199.100625,53.9930446 196.861651,53.9930446 C194.96601,53.9930446 193.716508,55.3975768 193.716508,57.3787301 C193.716508,59.5550819 194.808415,61 197.190349,61 C198.298016,61 198.837216,60.7374916 199.311126,60.5658515 L199.311126,59.3329594 Z M195.031299,56.8537133 C195.124731,55.986538 195.624532,54.9903523 196.835761,54.9903523 C197.901778,54.9903523 198.507392,55.8283599 198.507392,56.8537133 L195.031299,56.8537133 Z M201.615389,60.8429437 L202.853634,60.8429437 L202.853634,57.7982948 C202.853634,56.1189141 203.57632,55.0688804 204.683987,55.0688804 C204.893363,55.0688804 205.145514,55.0935607 205.368399,55.1866726 L205.368399,54.0839129 C205.10499,54.0311869 204.921505,53.9930446 204.552282,53.9930446 C203.840854,53.9930446 203.130551,54.4911375 202.800728,55.1866726 L202.773711,55.1866726 L202.773711,54.150101 L201.615389,54.150101 L201.615389,60.8429437 Z M207.027648,60.8429437 L208.265893,60.8429437 L208.265893,51 L207.027648,51 L207.027648,60.8429437 Z M211.044066,55.6724254 C211.542741,55.2528607 212.294694,54.9903523 212.99374,54.9903523 C214.229734,54.9903523 214.650738,55.5781916 214.650738,56.7336774 C214.164445,56.7089971 213.822239,56.7089971 213.333695,56.7089971 C212.057176,56.7089971 210.214442,57.2328921 210.214442,58.9133947 C210.214442,60.3706529 211.226426,61 212.676299,61 C213.807605,61 214.467252,60.382993 214.756552,59.9768903 L214.782442,59.9768903 L214.782442,60.8429437 L215.94189,60.8429437 C215.913748,60.6455015 215.890109,60.2910029 215.890109,59.5304016 L215.890109,56.7606013 C215.890109,54.9365044 215.11114,53.9930446 213.189608,53.9930446 C212.334093,53.9930446 211.595648,54.2555531 210.978777,54.6223917 L211.044066,55.6724254 Z M214.650738,58.2447835 C214.650738,59.2409693 214.005724,60.0026924 212.782113,60.0026924 C212.214771,60.0026924 211.531485,59.6201481 211.531485,58.9133947 C211.531485,57.7321068 213.189608,57.6255329 213.860512,57.6255329 C214.123921,57.6255329 214.387329,57.6535786 214.650738,57.6535786 L214.650738,58.2447835 Z M218.114448,60.8429437 L219.352694,60.8429437 L219.352694,57.7455688 C219.352694,56.1189141 219.984199,54.9903523 221.392422,54.9903523 C222.473073,55.0554184 222.814153,55.8160197 222.814153,57.3787301 L222.814153,60.8429437 L224.053525,60.8429437 L224.053525,56.8660534 C224.053525,55.0688804 223.275681,53.9930446 221.536509,53.9930446 C220.602196,53.9930446 219.706157,54.4507516 219.33806,55.2113529 L219.313295,55.2113529 L219.313295,54.150101 L218.114448,54.150101 L218.114448,60.8429437 Z M231.045109,60.8429437 L232.229323,60.8429437 L232.229323,51 L230.993328,51 L230.993328,55.0688804 L230.965186,55.0688804 C230.583582,54.4507516 229.912678,53.9930446 228.740847,53.9930446 C226.791173,53.9930446 225.844478,55.5781916 225.844478,57.3787301 C225.844478,59.2005834 226.698867,61 228.728465,61 C229.926186,61 230.689395,60.3953332 231.018093,59.8983621 L231.045109,59.8983621 L231.045109,60.8429437 Z M227.160395,57.4695984 C227.133379,56.2501683 227.660196,54.9903523 229.004256,54.9903523 C230.346064,54.9903523 230.993328,56.2625084 230.993328,57.5088625 C230.993328,58.6228405 230.412479,60.0026924 229.016638,60.0026924 C227.686087,60.0026924 227.133379,58.5185102 227.160395,57.4695984 L227.160395,57.4695984 Z M233.90208,60.6331613 C234.469421,60.9326902 235.114435,61 235.74594,61 C236.944787,61 238.088476,60.3426071 238.088476,58.9133947 C238.088476,56.7751851 235.179724,57.1678259 235.179724,55.8036796 C235.179724,55.2528607 235.733558,54.9903523 236.365063,54.9903523 C236.653236,54.9903523 237.390555,55.1597487 237.667472,55.3313888 L237.773286,54.2555531 C237.285867,54.1097151 236.811957,53.9930446 236.232233,53.9930446 C234.901682,53.9930446 233.862681,54.6616558 233.862681,56.052726 C233.862681,57.9284272 236.772558,57.8229751 236.772558,59.043527 C236.772558,59.7671079 236.074638,60.0026924 235.508422,60.0026924 C235.153833,60.0026924 234.454788,59.8456361 233.967369,59.5304016 L233.90208,60.6331613 Z M247.989938,51.8514696 C247.358432,51.6304689 246.633496,51.523895 246.029007,51.523895 C244.369758,51.523895 243.079731,52.3910702 243.079731,54.0188468 C243.079731,56.8660534 247.029734,56.3006507 247.029734,58.3479919 C247.029734,59.4260713 245.9761,59.8456361 245.226399,59.8456361 C244.555495,59.8456361 243.764143,59.5831277 243.314998,59.3980256 L243.185545,60.6185775 C243.790034,60.8171416 244.421539,61 245.068804,61 C246.911538,61 248.424449,60.2259367 248.424449,58.2705856 C248.424449,55.2528607 244.474446,55.6589634 244.474446,53.8999327 C244.474446,52.943011 245.344595,52.6805026 246.081914,52.6805026 C246.766326,52.6805026 247.135548,52.7982948 247.807578,53.0596814 L247.989938,51.8514696 Z M253.798435,54.150101 L252.019864,54.150101 L252.019864,52.2082118 L250.782744,52.6019744 L250.782744,54.150101 L249.267582,54.150101 L249.267582,55.1462867 L250.782744,55.1462867 L250.782744,59.0581108 C250.782744,60.3953332 251.57297,61 252.849489,61 C253.244602,61 253.626206,60.8956697 253.901997,60.8171416 L253.901997,59.7671079 C253.718512,59.8826565 253.442721,60.0026924 253.058865,60.0026924 C252.4949,60.0026924 252.019864,59.5831277 252.019864,58.8079426 L252.019864,55.1462867 L253.798435,55.1462867 L253.798435,54.150101 Z M261.421525,54.150101 L260.184405,54.150101 L260.184405,57.246354 C260.184405,58.8730088 259.5529,60.0026924 258.143551,60.0026924 C257.062901,59.9353825 256.720695,59.1759031 256.720695,57.6131927 L256.720695,54.150101 L255.482449,54.150101 L255.482449,58.1258694 C255.482449,59.9230424 256.260292,61 257.998339,61 C258.932652,61 259.828691,60.5400494 260.196788,59.7783262 L260.223804,59.7783262 L260.223804,60.8429437 L261.421525,60.8429437 L261.421525,54.150101 Z M268.414236,60.8429437 L269.598449,60.8429437 L269.598449,51 L268.361329,51 L268.361329,55.0688804 L268.334313,55.0688804 C267.952708,54.4507516 267.280678,53.9930446 266.108848,53.9930446 C264.160299,53.9930446 263.212479,55.5781916 263.212479,57.3787301 C263.212479,59.2005834 264.069119,61 266.096465,61 C267.295312,61 268.058522,60.3953332 268.387219,59.8983621 L268.414236,59.8983621 L268.414236,60.8429437 Z M264.528396,57.4695984 C264.503631,56.2501683 265.029323,54.9903523 266.372256,54.9903523 C267.716315,54.9903523 268.361329,56.2625084 268.361329,57.5088625 C268.361329,58.6228405 267.781605,60.0026924 266.384639,60.0026924 C265.056339,60.0026924 264.503631,58.5185102 264.528396,57.4695984 L264.528396,57.4695984 Z M271.996142,60.8429437 L273.233262,60.8429437 L273.233262,54.150101 L271.996142,54.150101 L271.996142,60.8429437 Z M271.917345,52.651335 L273.313186,52.651335 L273.313186,51.2613866 L271.917345,51.2613866 L271.917345,52.651335 Z M280.777555,59.3329594 C280.475873,59.5831277 279.526927,60.0026924 278.709685,60.0026924 C277.537854,60.0026924 276.497728,59.0962531 276.497728,57.7713709 L281.290864,57.7713709 C281.290864,55.6185775 280.568179,53.9930446 278.329206,53.9930446 C276.432439,53.9930446 275.181811,55.3975768 275.181811,57.3787301 C275.181811,59.5550819 276.274844,61 278.657904,61 C279.764445,61 280.303645,60.7374916 280.777555,60.5658515 L280.777555,59.3329594 Z M276.497728,56.8537133 C276.591159,55.986538 277.09096,54.9903523 278.303315,54.9903523 C279.369332,54.9903523 279.973821,55.8283599 279.973821,56.8537133 L276.497728,56.8537133 Z M287.452824,54.2555531 C287.099362,54.1097151 286.452097,53.9930446 285.953422,53.9930446 C283.89906,53.9930446 282.530235,55.462643 282.530235,57.4954005 C282.530235,59.4103657 283.923825,61 285.953422,61 C286.39919,61 286.993548,60.9607359 287.505731,60.7229078 L287.415677,59.6201481 C287.031821,59.8703164 286.505004,60.0026924 286.084,60.0026924 C284.491166,60.0026924 283.846153,58.6901503 283.846153,57.4954005 C283.846153,56.2232443 284.62287,54.9903523 286.005203,54.9903523 C286.39919,54.9903523 286.8731,55.0812206 287.348136,55.2786628 L287.452824,54.2555531 Z M294.208017,59.3329594 C293.90521,59.5831277 292.958515,60.0026924 292.141273,60.0026924 C290.969442,60.0026924 289.92819,59.0962531 289.92819,57.7713709 L294.721326,57.7713709 C294.721326,55.6185775 293.99639,53.9930446 291.758542,53.9930446 C289.864026,53.9930446 288.612273,55.3975768 288.612273,57.3787301 C288.612273,59.5550819 289.705306,61 292.08724,61 C293.194907,61 293.734107,60.7374916 294.208017,60.5658515 L294.208017,59.3329594 Z M289.92819,56.8537133 C290.020496,55.986538 290.521422,54.9903523 291.732652,54.9903523 C292.799794,54.9903523 293.405409,55.8283599 293.405409,56.8537133 L289.92819,56.8537133 Z M296.512279,60.8429437 L297.750525,60.8429437 L297.750525,57.7455688 C297.750525,56.1189141 298.383156,54.9903523 299.791379,54.9903523 C300.870904,55.0554184 301.21311,55.8160197 301.21311,57.3787301 L301.21311,60.8429437 L302.451356,60.8429437 L302.451356,56.8660534 C302.451356,55.0688804 301.674638,53.9930446 299.935466,53.9930446 C299.001153,53.9930446 298.105114,54.4507516 297.737017,55.2113529 L297.710001,55.2113529 L297.710001,54.150101 L296.512279,54.150101 L296.512279,60.8429437 Z M308.257602,54.150101 L306.479031,54.150101 L306.479031,52.2082118 L305.243037,52.6019744 L305.243037,54.150101 L303.727874,54.150101 L303.727874,55.1462867 L305.243037,55.1462867 L305.243037,59.0581108 C305.243037,60.3953332 306.033262,61 307.309781,61 C307.70602,61 308.086499,60.8956697 308.363415,60.8171416 L308.363415,59.7671079 C308.17993,59.8826565 307.901888,60.0026924 307.520283,60.0026924 C306.952941,60.0026924 306.479031,59.5831277 306.479031,58.8079426 L306.479031,55.1462867 L308.257602,55.1462867 L308.257602,54.150101 Z M309.943867,60.8429437 L311.180987,60.8429437 L311.180987,57.7982948 C311.180987,56.1189141 311.904798,55.0688804 313.010213,55.0688804 C313.221841,55.0688804 313.471741,55.0935607 313.695751,55.1866726 L313.695751,54.0839129 C313.432343,54.0311869 313.248857,53.9930446 312.880761,53.9930446 C312.168206,53.9930446 311.457904,54.4911375 311.129206,55.1866726 L311.10219,55.1866726 L311.10219,54.150101 L309.943867,54.150101 L309.943867,60.8429437 Z M321.135356,54.150101 L319.898236,54.150101 L319.898236,57.246354 C319.898236,58.8730088 319.266731,60.0026924 317.856256,60.0026924 C316.777857,59.9353825 316.4334,59.1759031 316.4334,57.6131927 L316.4334,54.150101 L315.19628,54.150101 L315.19628,58.1258694 C315.19628,59.9230424 315.974123,61 317.711044,61 C318.646482,61 319.542522,60.5400494 319.910618,59.7783262 L319.937635,59.7783262 L319.937635,60.8429437 L321.135356,60.8429437 L321.135356,54.150101 Z M323.360821,60.8429437 L324.597941,60.8429437 L324.597941,57.4695984 C324.597941,56.2232443 325.098867,54.9903523 326.363004,54.9903523 C327.363731,54.9903523 327.560725,56.0258021 327.560725,56.8537133 L327.560725,60.8429437 L328.79897,60.8429437 L328.79897,57.4695984 C328.79897,56.2232443 329.298771,54.9903523 330.562908,54.9903523 C331.563635,54.9903523 331.760629,56.0258021 331.760629,56.8537133 L331.760629,60.8429437 L333,60.8429437 L333,56.5508189 C333,55.0935607 332.380877,53.9930446 330.667596,53.9930446 C330.063107,53.9930446 329.049997,54.3340812 328.588469,55.2910029 C328.232754,54.3856854 327.454911,53.9930446 326.680445,53.9930446 C325.6921,53.9930446 325.02007,54.3464214 324.545034,55.1216065 L324.520269,55.1216065 L324.520269,54.150101 L323.360821,54.150101 L323.360821,60.8429437 Z" id="Fill-9" fill="#000000"></path>
                <g id="Group-13" transform="translate(168.000000, 70.000000)">
                    <mask id="mask-6" fill="white">
                        <use xlink:href="#path-5"></use>
                    </mask>
                    <g id="Clip-12"></g>
                    <path d="M7.63543037,1.69073333 C6.97886492,1.38973333 6.28420524,1.28006667 5.57722094,1.28006667 C2.78513717,1.28006667 0.741493194,3.23306667 0.741493194,6.1649 C0.741493194,9.1959 2.66749319,11.1349 5.56377592,11.1349 C6.10045654,11.1349 6.95421571,11.0940667 7.64775497,10.7919 L7.56820524,9.4689 C7.11107435,9.75473333 6.23266597,9.93206667 5.57722094,9.93206667 C3.67587016,9.93206667 2.13081257,8.44456667 2.13081257,6.2069 C2.13081257,4.0649 3.53133613,2.48173333 5.64332565,2.48173333 C6.30997487,2.48173333 6.95421571,2.6579 7.53123141,3.0149 L7.63543037,1.69073333 Z M9.23314764,10.9704 L10.4656084,10.9704 L10.4656084,7.80523333 C10.4656084,6.05873333 11.1860377,4.96556667 12.286289,4.96556667 C12.4969277,4.96556667 12.7456607,4.9924 12.9686241,5.08923333 L12.9686241,3.9424 C12.7064461,3.88756667 12.5238178,3.84673333 12.1574408,3.84673333 C11.4482157,3.84673333 10.7412314,4.36473333 10.4140691,5.08923333 L10.3871791,5.08923333 L10.3871791,4.01006667 L9.23314764,4.01006667 L9.23314764,10.9704 Z M14.6201215,10.9704 L15.8514618,10.9704 L15.8514618,4.01006667 L14.6201215,4.01006667 L14.6201215,10.9704 Z M14.5405717,2.45373333 L15.9310115,2.45373333 L15.9310115,1.0094 L14.5405717,1.0094 L14.5405717,2.45373333 Z M18.2256293,10.9704 L19.4558492,10.9704 L19.4558492,7.46223333 C19.4558492,6.1649 19.9544356,4.8839 21.212666,4.8839 C22.2087183,4.8839 22.4047916,5.9619 22.4047916,6.82056667 L22.4047916,10.9704 L23.6372524,10.9704 L23.6372524,7.46223333 C23.6372524,6.1649 24.1347183,4.8839 25.3918283,4.8839 C26.389001,4.8839 26.5861948,5.9619 26.5861948,6.82056667 L26.5861948,10.9704 L27.8186555,10.9704 L27.8186555,6.5079 C27.8186555,4.9924 27.2013047,3.84673333 25.4982681,3.84673333 C24.8954827,3.84673333 23.8871058,4.2014 23.427734,5.19773333 C23.0725613,4.25623333 22.2994723,3.84673333 21.5275037,3.84673333 C20.5437759,3.84673333 19.8760063,4.2154 19.4031895,5.02156667 L19.3785403,5.02156667 L19.3785403,4.01006667 L18.2256293,4.01006667 L18.2256293,10.9704 Z M30.1760168,10.9704 L31.4073571,10.9704 L31.4073571,4.01006667 L30.1760168,4.01006667 L30.1760168,10.9704 Z M30.0975874,2.45373333 L31.4869068,2.45373333 L31.4869068,1.0094 L30.0975874,1.0094 L30.0975874,2.45373333 Z M33.7927288,10.9704 L35.0263099,10.9704 L35.0263099,7.74806667 C35.0263099,6.05873333 35.6548649,4.8839 37.0576293,4.8839 C38.1309906,4.95273333 38.4738387,5.74373333 38.4738387,7.36656667 L38.4738387,10.9704 L39.7051791,10.9704 L39.7051791,6.83573333 C39.7051791,4.96556667 38.9309696,3.84673333 37.1999225,3.84673333 C36.2710953,3.84673333 35.3792419,4.32506667 35.0128649,5.11606667 L34.9859749,5.11606667 L34.9859749,4.01006667 L33.7927288,4.01006667 L33.7927288,10.9704 Z M42.3135141,5.5944 C42.8098597,5.15806667 43.5582995,4.8839 44.2518387,4.8839 C45.4842995,4.8839 45.9033361,5.49873333 45.9033361,6.69806667 C45.4193152,6.67356667 45.0775874,6.67356667 44.5935665,6.67356667 C43.3218911,6.67356667 41.486645,7.2184 41.486645,8.96373333 C41.486645,10.4780667 42.495022,11.1349 43.9381215,11.1349 C45.0641424,11.1349 45.7207079,10.4932333 46.0086555,10.0697333 L46.0344251,10.0697333 L46.0344251,10.9704 L47.1884565,10.9704 C47.1615665,10.7650667 47.1346764,10.3975667 47.1346764,9.60423333 L47.1346764,6.7249 C47.1346764,4.82906667 46.3627079,3.84673333 44.4490325,3.84673333 C43.5963937,3.84673333 42.8625194,4.1209 42.2474094,4.50123333 L42.3135141,5.5944 Z M45.9033361,8.2684 C45.9033361,9.30556667 45.2624565,10.0965667 44.0434408,10.0965667 C43.4787497,10.0965667 42.7964147,9.70106667 42.7964147,8.96373333 C42.7964147,7.7364 44.4490325,7.62673333 45.1168021,7.62673333 C45.3789801,7.62673333 45.6400377,7.65473333 45.9033361,7.65473333 L45.9033361,8.2684 Z M49.5077236,10.9704 L50.7390639,10.9704 L50.7390639,0.7364 L49.5077236,0.7364 L49.5077236,10.9704 Z M53.2824147,10.9704 L54.513755,10.9704 L54.513755,4.01006667 L53.2824147,4.01006667 L53.2824147,10.9704 Z M53.2039853,2.45373333 L54.5933047,2.45373333 L54.5933047,1.0094 L53.2039853,1.0094 L53.2039853,2.45373333 Z M60.4519749,4.01006667 L58.6817131,4.01006667 L58.6817131,1.99056667 L57.4503728,2.40123333 L57.4503728,4.01006667 L55.9434094,4.01006667 L55.9434094,5.04723333 L57.4503728,5.04723333 L57.4503728,9.11306667 C57.4503728,10.5060667 58.2380272,11.1349 59.5074618,11.1349 C59.9007288,11.1349 60.2816712,11.0240667 60.5561738,10.9435667 L60.5561738,9.85156667 C60.3724251,9.97523333 60.0979225,10.0965667 59.7181005,10.0965667 C59.1545298,10.0965667 58.6817131,9.65906667 58.6817131,8.85523333 L58.6817131,5.04723333 L60.4519749,5.04723333 L60.4519749,4.01006667 Z M67.2529173,9.40006667 C66.952645,9.65906667 66.0081319,10.0965667 65.1958283,10.0965667 C64.0294723,10.0965667 62.9942052,9.15506667 62.9942052,7.77723333 L67.7649487,7.77723333 C67.7649487,5.5384 67.0445194,3.84673333 64.8160063,3.84673333 C62.9281005,3.84673333 61.6833152,5.3074 61.6833152,7.36656667 C61.6833152,9.6334 62.7701215,11.1349 65.1431686,11.1349 C66.2434199,11.1349 66.7823414,10.8595667 67.2529173,10.6834 L67.2529173,9.40006667 Z M62.9942052,6.82056667 C63.0849592,5.92106667 63.5835455,4.8839 64.7902366,4.8839 C65.8501529,4.8839 66.4540586,5.75656667 66.4540586,6.82056667 L62.9942052,6.82056667 Z M69.7032733,10.9704 L70.935734,10.9704 L70.935734,4.01006667 L69.7032733,4.01006667 L69.7032733,10.9704 Z M69.624844,2.45373333 L71.0141634,2.45373333 L71.0141634,1.0094 L69.624844,1.0094 L69.624844,2.45373333 Z M76.8728335,4.01006667 L75.1036921,4.01006667 L75.1036921,1.99056667 L73.8723518,2.40123333 L73.8723518,4.01006667 L72.3642681,4.01006667 L72.3642681,5.04723333 L73.8723518,5.04723333 L73.8723518,9.11306667 C73.8723518,10.5060667 74.6588859,11.1349 75.9294408,11.1349 C76.3227079,11.1349 76.7025298,11.0240667 76.9770325,10.9435667 L76.9770325,9.85156667 C76.7955246,9.97523333 76.5187812,10.0965667 76.1389592,10.0965667 C75.5753885,10.0965667 75.1036921,9.65906667 75.1036921,8.85523333 L75.1036921,5.04723333 L76.8728335,5.04723333 L76.8728335,4.01006667 Z M87.4507079,9.40006667 C87.1470743,9.65906667 86.2048021,10.0965667 85.3902576,10.0965667 C84.225022,10.0965667 83.1886346,9.15506667 83.1886346,7.77723333 L87.959378,7.77723333 C87.959378,5.5384 87.2400691,3.84673333 85.011556,3.84673333 C83.1236503,3.84673333 81.8777445,5.3074 81.8777445,7.36656667 C81.8777445,9.6334 82.9667916,11.1349 85.3387183,11.1349 C86.4389696,11.1349 86.9778911,10.8595667 87.4507079,10.6834 L87.4507079,9.40006667 Z M83.1886346,6.82056667 C83.2816293,5.92106667 83.7802157,4.8839 84.9857864,4.8839 C86.046823,4.8839 86.6507288,5.75656667 86.6507288,6.82056667 L83.1886346,6.82056667 Z M89.7419644,10.9704 L90.9744251,10.9704 L90.9744251,7.74806667 C90.9744251,6.05873333 91.6041005,4.8839 93.0068649,4.8839 C94.0813466,4.95273333 94.4219539,5.74373333 94.4219539,7.36656667 L94.4219539,10.9704 L95.6532942,10.9704 L95.6532942,6.83573333 C95.6532942,4.96556667 94.8813257,3.84673333 93.1502785,3.84673333 C92.2214513,3.84673333 91.3295979,4.32506667 90.9632209,5.11606667 L90.9352105,5.11606667 L90.9352105,4.01006667 L89.7419644,4.01006667 L89.7419644,10.9704 Z M101.695713,10.9704 L103.006603,10.9704 L103.006603,6.74006667 L103.792017,6.74006667 C104.487797,6.74006667 104.920279,6.74006667 105.326991,7.66756667 L106.727514,10.9704 L108.222153,10.9704 L106.492226,7.1764 C106.203158,6.5884 106.007085,6.38423333 105.601493,6.22206667 L105.601493,6.19406667 C106.661409,6.00156667 107.488279,5.1849 107.488279,4.0229 C107.488279,1.74323333 105.746027,1.44573333 103.936551,1.44573333 L101.695713,1.44573333 L101.695713,10.9704 Z M103.006603,2.64506667 L104.264834,2.64506667 C105.469284,2.64506667 106.097839,3.19106667 106.097839,4.05206667 C106.097839,4.96556667 105.363964,5.5384 104.120299,5.5384 L103.006603,5.5384 L103.006603,2.64506667 Z M114.920017,9.40006667 C114.617504,9.65906667 113.674111,10.0965667 112.861807,10.0965667 C111.694331,10.0965667 110.660184,9.15506667 110.660184,7.77723333 L115.429807,7.77723333 C115.429807,5.5384 114.710498,3.84673333 112.481985,3.84673333 C110.59408,3.84673333 109.348174,5.3074 109.348174,7.36656667 C109.348174,9.6334 110.436101,11.1349 112.809148,11.1349 C113.909399,11.1349 114.44832,10.8595667 114.920017,10.6834 L114.920017,9.40006667 Z M110.660184,6.82056667 C110.752059,5.92106667 111.250645,4.8839 112.455095,4.8839 C113.516132,4.8839 114.118917,5.75656667 114.118917,6.82056667 L110.660184,6.82056667 Z M121.56298,4.1209 C121.211169,3.96806667 120.566928,3.84673333 120.069462,3.84673333 C118.025818,3.84673333 116.662268,5.37506667 116.662268,7.4914 C116.662268,9.48173333 118.050467,11.1349 120.069462,11.1349 C120.515388,11.1349 121.105849,11.0940667 121.61564,10.8467333 L121.524886,9.70106667 C121.143943,9.96006667 120.619587,10.0965667 120.19943,10.0965667 C118.614038,10.0965667 117.973158,8.73156667 117.973158,7.4914 C117.973158,6.1649 118.746247,4.8839 120.123242,4.8839 C120.515388,4.8839 120.985964,4.97956667 121.457661,5.1849 L121.56298,4.1209 Z M123.164059,10.9704 L124.394279,10.9704 L124.394279,7.74806667 C124.394279,6.05873333 125.023954,4.8839 126.425598,4.8839 C127.50008,4.95273333 127.841807,5.74373333 127.841807,7.36656667 L127.841807,10.9704 L129.072027,10.9704 L129.072027,6.83573333 C129.072027,4.96556667 128.301179,3.84673333 126.571252,3.84673333 C125.639064,3.84673333 124.865975,4.27023333 124.421169,5.00756667 L124.394279,5.00756667 L124.394279,0.7364 L123.164059,0.7364 L123.164059,10.9704 Z M134.853388,4.01006667 L133.083127,4.01006667 L133.083127,1.99056667 L131.851786,2.40123333 L131.851786,4.01006667 L130.345943,4.01006667 L130.345943,5.04723333 L131.851786,5.04723333 L131.851786,9.11306667 C131.851786,10.5060667 132.6372,11.1349 133.909996,11.1349 C134.302142,11.1349 134.681964,11.0240667 134.958708,10.9435667 L134.958708,9.85156667 C134.773839,9.97523333 134.499336,10.0965667 134.119514,10.0965667 C133.555943,10.0965667 133.083127,9.65906667 133.083127,8.85523333 L133.083127,5.04723333 L134.853388,5.04723333 L134.853388,4.01006667 Z M135.967085,10.7522333 C136.530655,11.0649 137.173776,11.1349 137.802331,11.1349 C138.995577,11.1349 140.133923,10.4524 140.133923,8.96373333 C140.133923,6.74006667 137.23764,7.14956667 137.23764,5.7309 C137.23764,5.15806667 137.790006,4.8839 138.418561,4.8839 C138.705388,4.8839 139.439263,5.06123333 139.714886,5.2374 L139.819085,4.1209 C139.333943,3.96806667 138.863368,3.84673333 138.287472,3.84673333 C136.963137,3.84673333 135.92675,4.54323333 135.92675,5.9899 C135.92675,7.94056667 138.823032,7.83323333 138.823032,9.1014 C138.823032,9.85156667 138.129493,10.0965667 137.564802,10.0965667 C137.212991,10.0965667 136.51721,9.93206667 136.032069,9.60423333 L135.967085,10.7522333 Z M141.75965,10.9704 L142.992111,10.9704 L142.992111,7.74806667 C142.992111,6.05873333 143.621786,4.8839 145.024551,4.8839 C146.099032,4.95273333 146.43964,5.74373333 146.43964,7.36656667 L146.43964,10.9704 L147.67098,10.9704 L147.67098,6.83573333 C147.67098,4.96556667 146.896771,3.84673333 145.165724,3.84673333 C144.236896,3.84673333 143.463807,4.27023333 143.017881,5.00756667 L142.992111,5.00756667 L142.992111,0.7364 L141.75965,0.7364 L141.75965,10.9704 Z M150.279315,5.5944 C150.775661,5.15806667 151.52298,4.8839 152.21876,4.8839 C153.450101,4.8839 153.869137,5.49873333 153.869137,6.69806667 C153.383996,6.67356667 153.043388,6.67356667 152.558247,6.67356667 C151.286572,6.67356667 149.453566,7.2184 149.453566,8.96373333 C149.453566,10.4780667 150.460823,11.1349 151.903923,11.1349 C153.029943,11.1349 153.686509,10.4932333 153.974457,10.0697333 L154.000226,10.0697333 L154.000226,10.9704 L155.154258,10.9704 C155.126247,10.7650667 155.102718,10.3975667 155.102718,9.60423333 L155.102718,6.7249 C155.102718,4.82906667 154.327388,3.84673333 152.413713,3.84673333 C151.562195,3.84673333 150.82832,4.1209 150.21209,4.50123333 L150.279315,5.5944 Z M153.869137,8.2684 C153.869137,9.30556667 153.227137,10.0965667 152.009242,10.0965667 C151.444551,10.0965667 150.764457,9.70106667 150.764457,8.96373333 C150.764457,7.7364 152.413713,7.62673333 153.082603,7.62673333 C153.344781,7.62673333 153.60808,7.65473333 153.869137,7.65473333 L153.869137,8.2684 Z M157.316666,10.9704 L158.548006,10.9704 L158.548006,7.74806667 C158.548006,6.05873333 159.176561,4.8839 160.579326,4.8839 C161.654928,4.95273333 161.994415,5.74373333 161.994415,7.36656667 L161.994415,10.9704 L163.227996,10.9704 L163.227996,6.83573333 C163.227996,4.96556667 162.453786,3.84673333 160.72386,3.84673333 C159.792792,3.84673333 158.902059,4.32506667 158.534561,5.11606667 L158.509912,5.11606667 L158.509912,4.01006667 L157.316666,4.01006667 L157.316666,10.9704 Z M170.185797,10.9704 L171.365598,10.9704 L171.365598,0.7364 L170.133137,0.7364 L170.133137,4.96556667 L170.107368,4.96556667 C169.727546,4.32506667 169.059776,3.84673333 167.89342,3.84673333 C165.953975,3.84673333 165.009462,5.49873333 165.009462,7.36656667 C165.009462,9.26356667 165.86098,11.1349 167.878854,11.1349 C169.072101,11.1349 169.832865,10.5060667 170.160027,9.9869 L170.185797,9.9869 L170.185797,10.9704 Z M166.320352,7.46223333 C166.293462,6.19406667 166.818938,4.8839 168.155598,4.8839 C169.490017,4.8839 170.133137,6.2069 170.133137,7.50423333 C170.133137,8.66506667 169.556121,10.0965667 168.167923,10.0965667 C166.844708,10.0965667 166.293462,8.55423333 166.320352,7.46223333 L166.320352,7.46223333 Z M173.592991,10.9704 L174.826572,10.9704 L174.826572,7.74806667 C174.826572,6.05873333 175.455127,4.8839 176.857891,4.8839 C177.931252,4.95273333 178.27298,5.74373333 178.27298,7.36656667 L178.27298,10.9704 L179.50432,10.9704 L179.50432,6.83573333 C179.50432,4.96556667 178.731231,3.84673333 177.001305,3.84673333 C176.071357,3.84673333 175.298268,4.27023333 174.851221,5.00756667 L174.826572,5.00756667 L174.826572,0.7364 L173.592991,0.7364 L173.592991,10.9704 Z M182.112655,5.5944 C182.610121,5.15806667 183.357441,4.8839 184.053221,4.8839 C185.283441,4.8839 185.702477,5.49873333 185.702477,6.69806667 C185.219577,6.67356667 184.87897,6.67356667 184.392708,6.67356667 C183.121032,6.67356667 181.286907,7.2184 181.286907,8.96373333 C181.286907,10.4780667 182.295284,11.1349 183.737263,11.1349 C184.864404,11.1349 185.52097,10.4932333 185.807797,10.0697333 L185.834687,10.0697333 L185.834687,10.9704 L186.988718,10.9704 C186.960708,10.7650667 186.936059,10.3975667 186.936059,9.60423333 L186.936059,6.7249 C186.936059,4.82906667 186.161849,3.84673333 184.249294,3.84673333 C183.397776,3.84673333 182.661661,4.1209 182.047671,4.50123333 L182.112655,5.5944 Z M185.702477,8.2684 C185.702477,9.30556667 185.061598,10.0965667 183.842582,10.0965667 C183.279012,10.0965667 182.597797,9.70106667 182.597797,8.96373333 C182.597797,7.7364 184.249294,7.62673333 184.917064,7.62673333 C185.178121,7.62673333 185.44142,7.65473333 185.702477,7.65473333 L185.702477,8.2684 Z M194.51009,4.01006667 L193.27875,4.01006667 L191.430059,9.68706667 L191.405409,9.68706667 L189.597053,4.01006667 L188.246949,4.01006667 L190.644645,10.9704 L192.113514,10.9704 L194.51009,4.01006667 Z M195.992404,10.9704 L197.223745,10.9704 L197.223745,4.01006667 L195.992404,4.01006667 L195.992404,10.9704 Z M195.913975,2.45373333 L197.303294,2.45373333 L197.303294,1.0094 L195.913975,1.0094 L195.913975,2.45373333 Z M199.606875,10.9704 L200.841577,10.9704 L200.841577,7.74806667 C200.841577,6.05873333 201.470132,4.8839 202.871776,4.8839 C203.946258,4.95273333 204.287985,5.74373333 204.287985,7.36656667 L204.287985,10.9704 L205.519326,10.9704 L205.519326,6.83573333 C205.519326,4.96556667 204.747357,3.84673333 203.01519,3.84673333 C202.086362,3.84673333 201.194509,4.32506667 200.828132,5.11606667 L200.802362,5.11606667 L200.802362,4.01006667 L199.606875,4.01006667 L199.606875,10.9704 Z M213.656928,4.01006667 L212.519703,4.01006667 L212.519703,5.04723333 L212.491692,5.04723333 C212.124195,4.2959 211.46987,3.84673333 210.290069,3.84673333 C208.272195,3.84673333 207.301912,5.75656667 207.301912,7.54506667 C207.301912,9.3464 208.245305,10.9704 210.15898,10.9704 C211.011619,10.9704 211.875462,10.6157333 212.399818,9.89123333 L212.426708,9.89123333 L212.426708,10.5737333 C212.426708,12.0484 211.652498,12.9630667 210.355053,12.9630667 C209.450875,12.9630667 208.887305,12.7857333 207.943912,12.3342333 L207.813943,13.5219 C208.887305,13.9045667 209.502415,14.0002333 210.21164,14.0002333 C212.609336,14.0002333 213.656928,12.7857333 213.656928,10.6705667 L213.656928,4.01006667 Z M210.474938,9.93206667 C209.320907,9.93206667 208.611682,8.78523333 208.611682,7.4774 C208.611682,6.28973333 209.227912,4.8839 210.474938,4.8839 C211.784708,4.8839 212.426708,6.1264 212.426708,7.5719 C212.426708,8.86923333 211.627849,9.93206667 210.474938,9.93206667 L210.474938,9.93206667 Z" id="Fill-11" fill="#000000" mask="url(#mask-6)"></path>
                </g>
            </g>
        </g>
    </g>
</svg>