<?xml version="1.0" encoding="utf-8"?>
<!-- Generator: Adobe Illustrator 23.0.2, SVG Export Plug-In . SVG Version: 6.00 Build 0)  -->
<svg version="1.1" xmlns="http://www.w3.org/2000/svg" xmlns:xlink="http://www.w3.org/1999/xlink" x="0px" y="0px"
	 viewBox="0 0 566.9 566.9" style="enable-background:new 0 0 566.9 566.9;" xml:space="preserve">
<style type="text/css">
	.st0{fill:none;stroke:#276AC0;stroke-width:9;stroke-miterlimit:10;}
	.st1{fill-rule:evenodd;clip-rule:evenodd;fill:none;}
	.st2{font-family:'HelveticaNeue-Bold';}
	.st3{font-size:50px;}
	.st4{fill-rule:evenodd;clip-rule:evenodd;fill:#B1005D;}
	.st5{filter:url(#Adobe_OpacityMaskFilter);}
	.st6{fill-rule:evenodd;clip-rule:evenodd;fill:#FFFFFF;}
	.st7{mask:url(#mask-2_1_);fill-rule:evenodd;clip-rule:evenodd;fill:#B1005D;}
	.st8{filter:url(#Adobe_OpacityMaskFilter_1_);}
	.st9{mask:url(#mask-4_1_);fill-rule:evenodd;clip-rule:evenodd;fill:#B1005D;}
	.st10{fill:none;}
	.st11{fill:#276AC0;}
	.st12{font-family:'Avenir-Black';}
	.st13{font-size:90px;}
	.st14{fill:none;stroke:#276AC0;stroke-width:8;stroke-miterlimit:10;}
	.st15{fill:none;stroke:#000000;stroke-width:2;stroke-miterlimit:10;}
	.st16{font-family:'HelveticaNeue-CondensedBlack';}
</style>
<g id="Laag_1">
	<title>NSCR Logo</title>
	<desc>Created with Sketch.</desc>
	<polygon class="st0" points="476.9,391.9 474.1,170.2 280.6,61.7 90,175 92.9,396.8 286.3,505.2 	"/>
	<rect x="114" y="299.6" class="st1" width="343" height="106"/>
	<text transform="matrix(1 0 0 1 119.2163 335.2537)" class="st2 st3">WORKSHOPS</text>
	<g>
		<g id="Symbols">
			<g id="Navigatie" transform="translate(-50.000000, -26.000000)">
				<g id="NSCR-Logo" transform="translate(50.000000, 26.000000)">
					<path id="Fill-1" class="st4" d="M224.1,266.1c4,2.5,10.5,4.3,14.7,4.3c7.9,0,12.4-2.9,12.4-8.2c0-11.6-28.1-11.1-28.1-28.8
						c0-10.8,8.9-18.2,22.5-18.2c5.5,0,10.8,1,14.7,2.4l-1,9.9c-2.6-1.6-7.5-3.1-12.9-3.1c-7.3,0-11.1,2.9-11.1,7.5
						c0,10.6,28.1,12,28.1,29c0,13.1-10.9,18.7-22.3,18.7c-6.8,0-13-1.2-17.5-3.4L224.1,266.1z"/>
					<g id="Group-5" transform="translate(0.000000, 13.000000)">
						<g id="Clip-4">
						</g>
						<defs>
							<filter id="Adobe_OpacityMaskFilter" filterUnits="userSpaceOnUse" x="146.7" y="201.1" width="65.8" height="63">
								<feColorMatrix  type="matrix" values="1 0 0 0 0  0 1 0 0 0  0 0 1 0 0  0 0 0 1 0"/>
							</filter>
						</defs>
						<mask maskUnits="userSpaceOnUse" x="146.7" y="201.1" width="65.8" height="63" id="mask-2_1_">
							<g class="st5">
								<polygon id="path-1_1_" class="st6" points="146.7,201.1 212.4,201.1 212.4,264.1 146.7,264.1 								"/>
							</g>
						</mask>
						<path id="Fill-3" class="st7" d="M191.4,201.1c-9.8,0-16.9,4.3-20.2,11.2h-0.3v-9.7h-24.3v9.2h13.3v52.3h11.7v-33.9
							c0-7.4,1.7-11.6,4.6-14.5c3-3,7.2-4.6,12.3-4.6c8.9,0,12.3,5.5,12.3,13.3v39.6h11.7v-39.8
							C212.4,208.9,205.4,201.1,191.4,201.1"/>
					</g>
					<g id="Group-8" transform="translate(92.000000, 0.000000)">
						<g id="Clip-7">
						</g>
						<defs>
							<filter id="Adobe_OpacityMaskFilter_1_" filterUnits="userSpaceOnUse" x="179.1" y="196.5" width="58.6" height="64.1">
								<feColorMatrix  type="matrix" values="1 0 0 0 0  0 1 0 0 0  0 0 1 0 0  0 0 0 1 0"/>
							</filter>
						</defs>
						<mask maskUnits="userSpaceOnUse" x="179.1" y="196.5" width="58.6" height="64.1" id="mask-4_1_">
							<g class="st8">
								<polygon id="path-3_1_" class="st6" points="179.1,196.5 279.7,196.5 279.7,277.2 179.1,277.2 								"/>
							</g>
						</mask>
						<path id="Fill-6" class="st9" d="M237.2,215.8c-3.1-14.9-14.8-19.3-25.3-19.3c-17.4,0-32.8,13.1-32.8,37.8
							c0,16.9,9.7,26.3,25,26.3c12.9,0,21.8-6.7,25.8-15.9l-10.1-4.4c-1.6,6.1-6.8,10.5-15,10.5c-8.3,0-13.8-5.7-13.8-16.7
							c0-16.5,7-28.1,20.5-28.1c8.8,0,15.9,4.5,15.9,18.9h10.2"/>
					</g>
				</g>
			</g>
		</g>
		<polygon class="st10" points="454.4,298.6 364.3,296 364.3,202.4 454.4,202.4 		"/>
		<text transform="matrix(1 0 0 1 364.318 270.4146)" class="st11 st12 st13">R</text>
		<line class="st14" x1="329.7" y1="245" x2="364.3" y2="245"/>
	</g>
	<line class="st15" x1="119.4" y1="298.6" x2="435.3" y2="299.6"/>
	<line class="st15" x1="128.3" y1="334.4" x2="432.3" y2="335.4"/>
</g>
<g id="_x31_">
	<rect x="114" y="384.2" class="st1" width="343" height="106"/>
	<text transform="matrix(1 0 0 1 259.4653 419.9203)" class="st16 st3">20</text>
</g>
<g id="Laag_3">
	<rect x="695.7" y="129.8" class="st1" width="343" height="106"/>
	<text transform="matrix(1 0 0 1 854.2462 165.5249)" class="st16 st3">1</text>
</g>
</svg>
